<svg xmlns="http://www.w3.org/2000/svg" version="1.1" xmlns:xlink="http://www.w3.org/1999/xlink" width="24" height="24"><svg xmlns="http://www.w3.org/2000/svg" version="1.1" xmlns:xlink="http://www.w3.org/1999/xlink" width="24" height="24"><svg xmlns="http://www.w3.org/2000/svg" width="24" height="24" viewBox="0 0 24 24" fill="none" stroke="currentColor" stroke-width="2" stroke-linecap="round" stroke-linejoin="round" class="icon icon-tabler icons-tabler-outline icon-tabler-movie"><path stroke="none" d="M0 0h24v24H0z" fill="none"></path><path d="M4 6a2 2 0 0 1 2 -2h12a2 2 0 0 1 2 2v12a2 2 0 0 1 -2 2h-12a2 2 0 0 1 -2 -2l0 -12"></path><path d="M8 4l0 16"></path><path d="M16 4l0 16"></path><path d="M4 8l4 0"></path><path d="M4 16l4 0"></path><path d="M4 12l16 0"></path><path d="M16 8l4 0"></path><path d="M16 16l4 0"></path></svg></svg><style>@media (prefers-color-scheme: light) { :root { filter: contrast(1) brightness(0.2); } }
@media (prefers-color-scheme: dark) { :root { filter: none; } }
</style></svg>